Coordinates
version=1
nRows=65
nColumns=12
inDegrees=yes

Units are S.I. units (second, meters, Newtons, ...)
Angles are in degrees

endheader
time	SC_y	SC_z	SC_x	AC_y	AC_z	AC_x	GH_y	GH_z	GH_yy	EL_x	PS_y
       0.0              -43.87         -4.744           55.0          49.83         -14.88          9.551          34.13          66.54         -78.22          111.3          87.19
   0.01237              -43.87         -4.738           55.0          49.83         -14.87          9.547          34.13          66.53         -78.23          111.3          87.19
   0.02473              -43.87         -4.732           55.0          49.83         -14.87          9.542          34.14          66.52         -78.23          111.3          87.18
    0.0371              -43.87         -4.725          55.01          49.84         -14.87          9.538          34.15          66.52         -78.23          111.3          87.16
   0.04947              -43.87         -4.717          55.01          49.84         -14.87          9.533          34.15          66.51         -78.24          111.3          87.15
   0.06184              -43.87         -4.709          55.01          49.84         -14.87          9.527          34.16           66.5         -78.24          111.3          87.14
    0.0742              -43.87         -4.701          55.01          49.85         -14.87          9.522          34.17          66.49         -78.25          111.3          87.13
   0.08657              -43.87         -4.691          55.01          49.85         -14.86          9.516          34.18          66.48         -78.25          111.3          87.11
   0.09894              -43.87         -4.682          55.01          49.85         -14.86          9.509          34.19          66.47         -78.26          111.3           87.1
    0.1113              -43.87         -4.671          55.01          49.86         -14.86          9.502           34.2          66.46         -78.27          111.3          87.08
    0.1237              -43.87          -4.66          55.01          49.86         -14.86          9.494          34.21          66.44         -78.27          111.3          87.07
     0.136              -43.87         -4.648          55.01          49.86         -14.85          9.486          34.22          66.43         -78.28          111.3          87.05
    0.1484              -43.87         -4.635          55.01          49.87         -14.85          9.478          34.23          66.42         -78.29          111.3          87.03
    0.1608              -43.87         -4.621          55.01          49.87         -14.85          9.468          34.24           66.4          -78.3          111.3          87.01
    0.1731              -43.86         -4.606          55.01          49.88         -14.84          9.458          34.26          66.38          -78.3          111.3          86.98
    0.1855              -43.86         -4.589          55.01          49.89         -14.84          9.447          34.27          66.37         -78.31          111.3          86.96
    0.1979              -43.86         -4.571          55.01          49.89         -14.83          9.435          34.29          66.35         -78.33          111.3          86.93
    0.2102              -43.86         -4.552          55.02           49.9         -14.83          9.422          34.31          66.32         -78.34          111.3           86.9
    0.2226              -43.86         -4.531          55.02          49.91         -14.82          9.407          34.33           66.3         -78.35          111.3          86.87
     0.235              -43.86         -4.507          55.02          49.92         -14.82          9.392          34.35          66.27         -78.36          111.3          86.83
    0.2473              -43.86         -4.482          55.02          49.92         -14.81          9.375          34.37          66.24         -78.38          111.3           86.8
    0.2597              -43.86         -4.453          55.02          49.93          -14.8          9.356           34.4          66.21          -78.4          111.3          86.75
    0.2721              -43.86         -4.422          55.02          49.95          -14.8          9.335          34.43          66.18         -78.42          111.3          86.71
    0.2844              -43.86         -4.388          55.03          49.96         -14.79          9.311          34.46          66.14         -78.44          111.3          86.65
    0.2968              -43.86         -4.349          55.03          49.97         -14.78          9.286           34.5           66.1         -78.46          111.3           86.6
    0.3092              -43.86         -4.306          55.03          49.99         -14.77          9.257          34.54          66.05         -78.49          111.3          86.53
    0.3215              -43.86         -4.258          55.03           50.0         -14.76          9.225          34.58           66.0         -78.51          111.3          86.46
    0.3339              -43.86         -4.204          55.04          50.02         -14.74          9.188          34.63          65.94         -78.55          111.3          86.38
    0.3463              -43.86         -4.143          55.04          50.05         -14.73          9.147          34.69          65.87         -78.58          111.3          86.28
    0.3587              -43.85         -4.074          55.04          50.07         -14.71          9.101          34.75          65.79         -78.63          111.3          86.18
     0.371              -43.85         -3.995          55.05           50.1         -14.69          9.048          34.82           65.7         -78.67          111.3          86.06
    0.3834              -43.85         -3.905          55.06          50.13         -14.67          8.987          34.91           65.6         -78.73          111.4          85.92
    0.3958              -43.85           -3.8          55.06          50.17         -14.64          8.917          35.01          65.48         -78.79          111.4          85.76
    0.4081              -43.85         -3.678          55.07          50.21         -14.61          8.835          35.12          65.35         -78.86          111.4          85.58
    0.4205              -43.84         -3.536          55.08          50.26         -14.58          8.739          35.25          65.19         -78.95          111.4          85.36
    0.4329              -43.84         -3.368          55.09          50.32         -14.53          8.626          35.41           65.0         -79.05          111.4          85.11
    0.4452              -43.84         -3.168           55.1          50.39         -14.48          8.492          35.59          64.78         -79.17          111.4           84.8
    0.4576              -43.83         -2.929          55.11          50.48         -14.42          8.332          35.81          64.51         -79.31          111.5          84.44
      0.47              -43.83          -2.64          55.13          50.58         -14.35          8.138          36.08          64.19         -79.49          111.5           84.0
    0.4823              -43.82         -2.287          55.15          50.71         -14.26            7.9          36.41          63.79          -79.7          111.5          83.47
    0.4947              -43.81         -1.851          55.18          50.87         -14.16          7.607          36.81           63.3         -79.96          111.6           82.8
    0.5071               -43.8         -1.307          55.21          51.06         -14.02          7.242          37.32           62.7         -80.29          111.6          81.98
    0.5194              -43.78        -0.6221          55.26          51.31         -13.85          6.782          37.95          61.93          -80.7          111.7          80.94
    0.5318              -43.77         0.2487          55.31          51.62         -13.63          6.197          38.76          60.96         -81.23          111.8          79.62
    0.5442              -43.74          1.363          55.38          52.02         -13.35          5.448           39.8          59.71          -81.9          111.9          77.93
    0.5565              -43.72          2.794          55.46          52.53          -13.0          4.487          41.12          58.11         -82.76          112.0          75.76
    0.5689              -43.68          4.621          55.58          53.18         -12.54           3.26          42.82          56.07         -83.86          112.2          72.98
    0.5813              -43.63          6.918          55.72           54.0         -11.97          1.717          44.95           53.5         -85.25          112.5           69.5
    0.5936              -43.58          9.717          55.89           55.0         -11.27        -0.1639          47.55          50.37         -86.93          112.8          65.25
     0.606              -43.51          12.96          56.08          56.17         -10.46         -2.344          50.56          46.74         -88.89          113.1          60.33
    0.6184              -43.44          16.48           56.3          57.42         -9.589         -4.704          53.82          42.81         -91.01          113.5           55.0
    0.6307              -43.37          19.99          56.51          58.68         -8.714         -7.065          57.08          38.88         -93.12          113.8          49.67
    0.6431               -43.3          23.23          56.71          59.84         -7.906         -9.244           60.1          35.26         -95.08          114.2          44.74
    0.6555              -43.25          26.03          56.88          60.84         -7.208         -11.13          62.69          32.13         -96.76          114.5          40.49
    0.6678               -43.2          28.33          57.02          61.66         -6.636         -12.67          64.83          29.56         -98.15          114.7          37.01
    0.6802              -43.16          30.16          57.13          62.32         -6.181          -13.9          66.52          27.51         -99.25          114.9          34.24
    0.6926              -43.14          31.59          57.22          62.83         -5.824         -14.86          67.85          25.92         -100.1          115.0          32.07
    0.7049              -43.11           32.7          57.29          63.23         -5.547         -15.61          68.88          24.67         -100.8          115.1          30.37
    0.7173               -43.1          33.57          57.34          63.54          -5.33         -16.19          69.69           23.7         -101.3          115.2          29.05
    0.7297              -43.08          34.26          57.38          63.79         -5.159         -16.65          70.33          22.93         -101.7          115.3          28.01
     0.742              -43.07           34.8          57.42          63.98         -5.024         -17.02          70.83          22.32         -102.0          115.4          27.19
    0.7544              -43.06          35.24          57.44          64.14         -4.915         -17.31          71.24          21.83         -102.3          115.4          26.53
    0.7668              -43.06          35.59          57.46          64.26         -4.827         -17.55          71.57          21.44         -102.5          115.4          25.99
    0.7791              -43.05          35.88          57.48          64.37         -4.755         -17.74          71.83          21.12         -102.7          115.5          25.55
    0.7915              -43.04          36.12           57.5          64.45         -4.695          -17.9          72.06          20.85         -102.8          115.5          25.19
